<svg width="91" height="92" viewBox="0 0 91 92" fill="none" xmlns="http://www.w3.org/2000/svg">
<path d="M45.49 81.6599C65.0961 81.6599 80.99 65.766 80.99 46.1599C80.99 26.5538 65.0961 10.6599 45.49 10.6599C25.8839 10.6599 9.98999 26.5538 9.98999 46.1599C9.98999 65.766 25.8839 81.6599 45.49 81.6599Z" fill="#F3F2ED"/>
<path d="M29.46 44.4399C29.54 37.1999 34.79 29.0199 44.46 28.6799C50.11 28.4799 55.89 31.8099 58.57 37.9599C60.77 43.0199 60.47 47.9999 57.67 52.7699C57.21 53.5599 57.35 54.0299 57.92 54.6099C60.2 56.9499 62.52 59.2499 64.66 61.7099C65.25 62.3799 65.65 63.6499 65.45 64.4899C64.98 66.4399 62.82 66.8599 61.33 65.3699C59.12 63.1699 56.95 60.9199 54.84 58.6099C53.98 57.6699 53.36 57.5799 52.22 58.2599C42.98 63.8099 31.71 57.7999 29.85 47.5199C29.67 46.4999 29.59 45.4699 29.46 44.4399V44.4399ZM44.78 33.7799C38.84 34.0199 34.61 38.6199 34.5 44.5199C34.39 50.3099 39.19 55.3199 44.77 55.2199C50.41 55.1199 55.03 50.7799 55.02 44.5299C55.02 38.4399 50.61 34.0699 44.78 33.7799V33.7799Z" fill="#416759"/>
<path d="M45.49 90.6499C70.0611 90.6499 89.98 70.7311 89.98 46.1599C89.98 21.5888 70.0611 1.66992 45.49 1.66992C20.9189 1.66992 1 21.5888 1 46.1599C1 70.7311 20.9189 90.6499 45.49 90.6499Z" stroke="#F3F2ED" stroke-width="2" stroke-miterlimit="10"/>
</svg>
