<svg width="91" height="91" viewBox="0 0 91 91" fill="none" xmlns="http://www.w3.org/2000/svg">
<path d="M45.49 80.99C65.0961 80.99 80.99 65.0961 80.99 45.49C80.99 25.8839 65.0961 9.98999 45.49 9.98999C25.8839 9.98999 9.98999 25.8839 9.98999 45.49C9.98999 65.0961 25.8839 80.99 45.49 80.99Z" fill="#F3F2ED"/>
<path d="M45.49 89.98C70.0611 89.98 89.98 70.0611 89.98 45.49C89.98 20.9189 70.0611 1 45.49 1C20.9188 1 1 20.9189 1 45.49C1 70.0611 20.9188 89.98 45.49 89.98Z" stroke="#F3F2ED" stroke-width="2" stroke-miterlimit="10"/>
<path d="M63.93 42.5601H60.23C60.23 41.0601 60.23 39.5601 60.23 38.0701C60.23 36.1201 59.39 35.1101 57.31 35.1201C48.77 35.1601 40.23 35.1601 31.68 35.1201C29.64 35.1101 28.69 35.9901 28.69 37.9901C28.69 43.7101 28.69 49.4301 28.69 55.1501C28.69 57.2201 29.84 57.9401 31.79 57.9201C36.71 57.8701 41.62 57.9101 46.54 57.9101C48.8467 57.9101 50.2466 59.1501 50.74 61.6301C43.81 61.6301 36.9 61.8001 30 61.5601C26.63 61.4401 25.02 59.3501 25 55.9201C24.95 47.7801 24.94 39.6401 25.01 31.5101C25.04 27.9401 26.73 25.9901 30.29 25.9301C39.71 25.7801 49.14 25.7901 58.57 25.9201C62.04 25.9701 63.73 27.7401 63.89 31.2201C64.06 34.9701 63.93 38.7401 63.93 42.5701V42.5601Z" fill="#416759"/>
<path d="M44.34 41.97C41.36 41.97 38.37 42.04 35.39 41.92C34.7 41.89 34.03 41.23 33.35 40.87C33.99 40.44 34.62 39.65 35.26 39.64C41.39 39.55 47.51 39.55 53.64 39.64C54.29 39.64 54.92 40.44 55.56 40.87C54.88 41.24 54.21 41.9 53.52 41.92C50.46 42.04 47.39 41.97 44.33 41.97H44.34Z" fill="#416759"/>
<path d="M53.7 45.33C52.86 47.41 51.53 47.8 49.73 47.76C44.99 47.65 40.24 47.78 35.5 47.67C34.78 47.65 34.07 46.87 33.36 46.44C34.04 46.07 34.72 45.39 35.41 45.38C41.44 45.3 47.46 45.33 53.69 45.33H53.7Z" fill="#416759"/>
<path d="M40.88 51.05C42.81 51.05 44.74 50.97 46.66 51.1C47.21 51.14 47.72 51.78 48.24 52.15C47.74 52.56 47.24 53.32 46.73 53.34C42.79 53.44 38.85 53.44 34.92 53.34C34.39 53.33 33.87 52.61 33.35 52.23C33.93 51.84 34.49 51.15 35.1 51.11C37.02 50.96 38.95 51.06 40.88 51.06V51.05Z" fill="#416759"/>
<path d="M62.16 45.3701C56.83 45.3501 52.26 49.8701 52.23 55.2001C52.2 60.6701 56.74 65.2101 62.23 65.1701C67.57 65.1401 72.03 60.6201 72.03 55.2301C72.03 49.9001 67.51 45.3801 62.15 45.3601L62.16 45.3701Z" fill="#416759"/>
<path d="M63.29 56.5799C63.29 57.5299 63.3 58.3399 63.29 59.1599C63.27 60.1399 62.79 60.6899 61.97 60.6899C61.16 60.6899 60.69 60.1299 60.68 59.1499C60.68 58.3299 60.68 57.5199 60.68 56.5799C59.82 56.5799 59.01 56.5799 58.2 56.5799C57.16 56.5799 56.56 56.0999 56.55 55.2999C56.54 54.4499 57.14 53.9699 58.24 53.9599C59.02 53.9599 59.81 53.9599 60.68 53.9599C60.68 53.0299 60.68 52.1899 60.68 51.3499C60.68 50.4099 61.14 49.8899 61.94 49.8699C62.75 49.8499 63.27 50.4099 63.29 51.3699C63.31 52.1899 63.29 53.0099 63.29 53.9699C64.14 53.9699 64.95 53.9699 65.76 53.9699C66.82 53.9799 67.38 54.4299 67.39 55.2799C67.39 56.1299 66.85 56.5799 65.78 56.5899C64.99 56.5899 64.21 56.5899 63.3 56.5899L63.29 56.5799Z" fill="#F3F2ED"/>
</svg>
