<svg width="91" height="92" viewBox="0 0 91 92" fill="none" xmlns="http://www.w3.org/2000/svg">
<path d="M45.49 81.04C65.0961 81.04 80.99 65.1461 80.99 45.54C80.99 25.9339 65.0961 10.04 45.49 10.04C25.8839 10.04 9.98999 25.9339 9.98999 45.54C9.98999 65.1461 25.8839 81.04 45.49 81.04Z" fill="#F3F2ED"/>
<path d="M45.49 90.03C70.0611 90.03 89.98 70.1112 89.98 45.5401C89.98 20.9689 70.0611 1.05005 45.49 1.05005C20.9188 1.05005 1 20.9689 1 45.5401C1 70.1112 20.9188 90.03 45.49 90.03Z" stroke="#F3F2ED" stroke-width="2" stroke-miterlimit="10"/>
<path d="M52.75 39.77C51.44 39.77 50.19 39.53 49.03 38.92C48.61 38.7 48.21 38.42 47.82 38.14C47.61 37.99 47.46 37.97 47.23 38.1C45.06 39.39 42.89 40.67 40.72 41.95C40.48 42.09 40.44 42.25 40.5 42.52C40.88 44.24 40.98 45.96 40.29 47.64C40.19 47.9 40.24 48.07 40.46 48.24C42.64 49.92 44.82 51.62 46.99 53.31C47.18 53.45 47.3 53.45 47.47 53.29C51.1 49.89 58.67 50.68 60.95 56.86C62.67 61.54 59.9201 66.64 55.0401 67.85C51.1501 68.82 47.1001 66.98 45.4101 63.44C44.6101 61.76 44.4501 60 44.9101 58.19C44.9901 57.87 44.9099 57.72 44.6699 57.54C42.1499 55.67 39.63 53.8 37.12 51.92C36.87 51.73 36.7 51.75 36.42 51.86C35.68 52.15 34.92 52.47 34.15 52.58C31.01 53.03 28.24 52.28 26.07 49.83C22.16 45.42 24 38.3 29.58 36.41C32.27 35.49 34.9 35.72 37.32 37.34C37.62 37.54 37.9 37.88 38.21 37.9C38.5 37.91 38.81 37.58 39.11 37.4C40.96 36.27 42.8099 35.12 44.6699 34C44.9699 33.82 45.0401 33.65 44.9101 33.3C44.2901 31.56 44.5 29.83 45.2 28.18C46.32 25.54 48.31 23.82 51.1 23.18C55.06 22.27 58.88 24.23 60.63 27.95C62.65 32.26 60.35 37.69 55.83 39.25C55.27 39.44 54.68 39.58 54.1 39.69C53.66 39.77 53.2 39.75 52.75 39.77V39.77ZM56.83 31.42C56.86 29.11 55.28 27.51 52.95 27.51C50.69 27.51 49.12 29.06 49.1 31.31C49.08 33.62 50.59 35.2 52.87 35.23C55.24 35.26 56.8 33.76 56.83 31.42ZM49.21 59.7C49.2 61.95 50.72 63.52 52.89 63.57C55.26 63.63 56.8899 62.15 56.9199 59.73C56.9599 57.45 55.3399 55.84 53.0499 55.84C50.7699 55.84 49.22 57.4 49.21 59.7V59.7ZM28.54 44.28C28.49 46.59 30.02 48.22 32.35 48.2C34.67 48.19 36.21 46.83 36.24 44.35C36.27 42.04 34.74 40.58 32.6 40.49C30.16 40.38 28.53 42.01 28.54 44.28Z" fill="#416759"/>
</svg>
